<svg width="33" height="21" viewBox="0 0 33 21" fill="none" xmlns="http://www.w3.org/2000/svg">
<path d="M5.38909 5.98157L16.4065 1.35051C16.9366 1.1277 17.5369 1.14382 18.0543 1.39474L27.6168 6.0326C29.2501 6.82475 29.0683 9.20784 27.3338 9.74317L17.7907 12.6886C17.4311 12.7995 17.0476 12.8068 16.6841 12.7096L5.64727 9.75738C3.80593 9.26484 3.63192 6.72017 5.38909 5.98157Z" fill="#AE7AE2" stroke="#AE7AE2" stroke-linecap="round" stroke-linejoin="round"/>
<path d="M17.0021 15.7191L11.0687 13.8586C10.4246 13.6566 9.76953 14.1377 9.76953 14.8127V17.4601C9.76953 17.8971 10.0533 18.2835 10.4703 18.4143L17.0021 20.4624C17.2165 20.5297 17.4472 20.5227 17.6572 20.4428L22.9177 18.4398C23.3055 18.2921 23.5619 17.9203 23.5619 17.5053V14.902C23.5619 14.2016 22.8605 13.7182 22.206 13.9674L17.6572 15.6994C17.4472 15.7794 17.2165 15.7863 17.0021 15.7191Z" fill="#AE7AE2" stroke="#AE7AE2" stroke-linecap="round" stroke-linejoin="round"/>
<path d="M28.0846 10.4868C28.0846 10.2107 27.8607 9.98682 27.5846 9.98682C27.3085 9.98682 27.0846 10.2107 27.0846 10.4868H28.0846ZM24.9179 17.6019C24.9179 19.0746 26.1118 20.2685 27.5846 20.2685C29.0574 20.2685 30.2513 19.0746 30.2513 17.6019C30.2513 16.1291 29.0574 14.9352 27.5846 14.9352C26.1118 14.9352 24.9179 16.1291 24.9179 17.6019ZM27.0846 10.4868V17.6019H28.0846V10.4868H27.0846Z" fill="#AE7AE2"/>
<path d="M17 5V9" stroke="white" stroke-opacity="0.6" stroke-width="2" stroke-linecap="round" stroke-linejoin="round"/>
<path d="M15 7H19" stroke="white" stroke-opacity="0.6" stroke-width="2" stroke-linecap="round" stroke-linejoin="round"/>
</svg>
